<svg xmlns="http://www.w3.org/2000/svg"><symbol id="qvl-icon-arrow-down" viewBox="0 0 24 24"><path d="m12 16a1 1 0 0 1 -.71-.29l-6-6a1 1 0 0 1 1.42-1.42l5.29 5.3 5.29-5.29a1 1 0 0 1 1.41 1.41l-6 6a1 1 0 0 1 -.7.29z"/></symbol><symbol id="qvl-icon-tick" viewBox="0 0 16 16"><path d="M15.2881 2.85506C14.8723 2.43927 14.1981 2.43927 13.7823 2.85505L5.75113 10.8861L2.21746 7.35256C1.80167 6.93678 1.12754 6.93679 0.711753 7.35258C0.295952 7.76838 0.295952 8.44251 0.711753 8.8583L4.99828 13.1448C5.20605 13.3528 5.4787 13.4568 5.75113 13.4568C6.02358 13.4568 6.29623 13.3528 6.50399 13.1448L15.2881 4.36077C15.7038 3.94498 15.7038 3.27085 15.2881 2.85506Z"/></symbol><symbol id="qvl-icon-plus" viewBox="0 0 19 19"><path d="M16.9691 9.69661H9.69661V16.9691H7.27246V9.69661H0V7.27246H7.27246V0H9.69661V7.27246H16.9691V9.69661Z"/></symbol><symbol id="qvl-icon-qty-plus" viewBox="0 0 20 20"><path d="M10.75 6.75a.75.75 0 0 0-1.5 0v2.5h-2.5a.75.75 0 0 0 0 1.5h2.5v2.5a.75.75 0 0 0 1.5 0v-2.5h2.5a.75.75 0 0 0 0-1.5h-2.5v-2.5Z"/></symbol><symbol id="qvl-icon-minus" viewBox="0 0 20 20"><path fill-rule="evenodd" d="M6 10a.75.75 0 0 1 .75-.75h6.5a.75.75 0 0 1 0 1.5h-6.5a.75.75 0 0 1-.75-.75Z"/></symbol><symbol id="qvl-icon-star" viewBox="0 0 7 7"><path d="M2.91022 0.175475C3.02192 -0.0585951 3.3551 -0.0585945 3.46679 0.175476L4.19481 1.70116C4.23976 1.79536 4.32932 1.86043 4.4328 1.87407L6.10878 2.095C6.36591 2.12889 6.46887 2.44577 6.28077 2.62432L5.05473 3.78818C4.97903 3.86004 4.94482 3.96532 4.96383 4.06795L5.27162 5.73017C5.31884 5.98519 5.04929 6.18103 4.82135 6.05732L3.33559 5.25093C3.24386 5.20114 3.13316 5.20114 3.04142 5.25093L1.55567 6.05732C1.32772 6.18103 1.05817 5.98519 1.10539 5.73017L1.41319 4.06795C1.43219 3.96531 1.39798 3.86004 1.32228 3.78818L0.096241 2.62432C-0.0918581 2.44577 0.0111016 2.12889 0.268231 2.095L1.94421 1.87407C2.0477 1.86043 2.13725 1.79536 2.1822 1.70116L2.91022 0.175475Z"/></symbol><symbol id="qvl-icon-coupon" viewBox="0 0 30 30"><path d="M21.321 15.719c-3.01.072-3.015 4.484-.006 4.564 3.01-.073 3.014-4.483.006-4.564zm-.785 2.285c.001-1.024 1.558-1.028 1.564-.004-.004 1.021-1.556 1.025-1.564.004zm-5.216-3.723c3.009-.076 3.009-4.488 0-4.564-3.01.077-3.008 4.486 0 4.564zm0-3.063c1.023.004 1.023 1.56 0 1.564-1.023-.005-1.022-1.558 0-1.564zm7.87-1.08c-.293-.294-.77-.295-1.064-.002l-8.69 8.649a.75.75 0 1 0 1.058 1.063l8.691-8.648a.75.75 0 0 0 .005-1.062zm-14.338.399a.75.75 0 0 0-.75.75v1.923a.75.75 0 1 0 1.5 0v-1.923a.75.75 0 0 0-.75-.75zm0 5.504a.75.75 0 0 0-.75.75v1.922a.75.75 0 1 0 1.5 0v-1.922a.75.75 0 0 0-.75-.75zm19.527-3.519a2.6 2.6 0 0 0 1.371-2.3V7.65a2.62 2.62 0 0 0-2.617-2.617H2.867A2.62 2.62 0 0 0 .25 7.65v2.57a2.6 2.6 0 0 0 1.371 2.3c1.369.733 1.885 2.437 1.152 3.806-.262.489-.663.89-1.152 1.152A2.6 2.6 0 0 0 .25 19.78v2.57a2.62 2.62 0 0 0 2.617 2.617h24.266a2.62 2.62 0 0 0 2.617-2.617v-2.57a2.6 2.6 0 0 0-1.371-2.3c-1.964-.983-1.949-3.975 0-4.958zm-2.47 4.512c.401.749 1.015 1.363 1.764 1.764a1.1 1.1 0 0 1 .577.978v2.57a1.12 1.12 0 0 1-1.117 1.117H9.6c-.041-.65.258-1.894-.75-1.919-1.009.024-.709 1.274-.75 1.923H2.867A1.12 1.12 0 0 1 1.75 22.35v-2.57a1.1 1.1 0 0 1 .577-.978 4.31 4.31 0 0 0 1.764-5.836c-.401-.749-1.015-1.363-1.764-1.764a1.1 1.1 0 0 1-.577-.978V7.65a1.12 1.12 0 0 1 1.117-1.117H8.1c.041.651-.26 1.898.75 1.923 1.009-.024.709-1.274.75-1.923h17.533A1.12 1.12 0 0 1 28.25 7.65v2.57a1.1 1.1 0 0 1-.577.978 4.31 4.31 0 0 0-1.764 5.836z"/></symbol><symbol id="qvl-icon-tag" viewBox="0 0 89 54"><g filter="url(#filter0_d_1141_4091)"><path d="M7.81486 29.4373L75.129 44.9284C77.3637 45.4427 79.577 43.994 80.0001 41.7402L84.924 15.5181C85.3471 13.2643 83.8097 11.1114 81.5409 10.7801L13.1924 0.797942C11.0502 0.485079 9.04259 1.91846 8.6428 4.04641L4.75326 24.76C4.35394 26.8876 5.70477 28.9515 7.81486 29.4373Z"/></g><defs><filter id="filter0_d_1141_4091" x="0.68335" y="0.755127" width="88.3108" height="52.2771" filterUnits="userSpaceOnUse" color-interpolation-filters="sRGB"><feFlood flood-opacity="0" result="BackgroundImageFix"/><feColorMatrix in="SourceAlpha" type="matrix" values="0 0 0 0 0 0 0 0 0 0 0 0 0 0 0 0 0 0 127 0" result="hardAlpha"/><feOffset dy="4"/><feGaussianBlur stdDeviation="2"/><feComposite in2="hardAlpha" operator="out"/><feColorMatrix type="matrix" values="0 0 0 0 0 0 0 0 0 0 0 0 0 0 0 0 0 0 0.15 0"/><feBlend mode="normal" in2="BackgroundImageFix" result="effect1_dropShadow_1141_4091"/><feBlend mode="normal" in="SourceGraphic" in2="effect1_dropShadow_1141_4091" result="shape"/></filter></defs></symbol><symbol id="qvl-icon-callout" viewBox="0 0 103 61"><g filter="url(#filter0_d_1_2)"><path d="M13.4497 2.80431L93.6533 14.8381C96.614 15.2823 98.654 18.0427 98.2098 21.0033L95.1232 41.5754C94.6789 44.536 91.9186 46.5761 88.958 46.1319L78.1948 44.4652L78.1948 54.017L66.9823 42.8347L8.75475 34.0982C5.79453 33.654 3.75404 30.8936 4.19826 27.933L7.28491 7.36087C7.72871 4.40017 10.4895 2.36015 13.4497 2.80431Z"/></g><path d="M11.7078 1.80437L91.911 13.8381C94.8716 14.2823 96.9121 17.0427 96.4678 20.0038L93.3812 40.5755C92.937 43.5361 90.1766 45.5766 87.2156 45.1323L76.1073 43.4656L67.5069 41.7039L7.01235 33.0986C4.05213 32.6544 2.01163 29.894 2.45591 26.933L5.5425 6.36128C5.98672 3.40065 8.74753 1.36022 11.7078 1.80437Z" stroke-width="1.67414" stroke-miterlimit="10"/><defs><filter id="filter0_d_1_2" x="0.137451" y="0.743591" width="102.133" height="59.2734" filterUnits="userSpaceOnUse" color-interpolation-filters="sRGB"><feFlood flood-opacity="0" result="BackgroundImageFix"/><feColorMatrix in="SourceAlpha" type="matrix" values="0 0 0 0 0 0 0 0 0 0 0 0 0 0 0 0 0 0 127 0" result="hardAlpha"/><feOffset dy="2"/><feGaussianBlur stdDeviation="2"/><feComposite in2="hardAlpha" operator="out"/><feColorMatrix type="matrix" values="0 0 0 0 0 0 0 0 0 0 0 0 0 0 0 0 0 0 0.15 0"/><feBlend mode="normal" in2="BackgroundImageFix" result="effect1_dropShadow_1_2"/><feBlend mode="normal" in="SourceGraphic" in2="effect1_dropShadow_1_2" result="shape"/></filter></defs></symbol><symbol id="qvl-icon-gift" viewBox="0 0 21 21" fill="none"><path d="M19.1543 4.92188H16.6507C17.0378 4.40737 17.2676 3.76815 17.2676 3.07617C17.2676 1.37997 15.8876 0 14.1914 0C13.1697 0 12.4163 0.366064 11.8203 1.15201C11.3218 1.80957 10.9572 2.72766 10.5 3.88767C10.0428 2.72762 9.67821 1.80957 9.17967 1.15201C8.58375 0.366064 7.83033 0 6.80859 0C5.11239 0 3.73242 1.37997 3.73242 3.07617C3.73242 3.76815 3.96223 4.40737 4.34934 4.92188H1.8457C0.827982 4.92188 0 5.74986 0 6.76758V7.99805C0 8.80011 0.514377 9.48396 1.23047 9.73793V19.1543C1.23047 20.172 2.05845 21 3.07617 21H17.9238C18.9415 21 19.7695 20.172 19.7695 19.1543V9.73793C20.4856 9.48396 21 8.80011 21 7.99805V6.76758C21 5.74986 20.172 4.92188 19.1543 4.92188ZM11.6293 4.37801C12.5718 1.98688 12.9301 1.23047 14.1914 1.23047C15.2091 1.23047 16.0371 2.05845 16.0371 3.07617C16.0371 4.09389 15.2091 4.92188 14.1914 4.92188H11.4141C11.4895 4.73259 11.5614 4.55036 11.6293 4.37801ZM6.80859 1.23047C8.06987 1.23047 8.42818 1.98688 9.37068 4.37801C9.4386 4.55036 9.5105 4.73259 9.58589 4.92188H6.80859C5.79087 4.92188 4.96289 4.09389 4.96289 3.07617C4.96289 2.05845 5.79087 1.23047 6.80859 1.23047ZM8.03906 19.7695H3.07617C2.73693 19.7695 2.46094 19.4935 2.46094 19.1543V9.84375H8.03906V19.7695ZM8.03906 8.61328H1.8457C1.50646 8.61328 1.23047 8.33729 1.23047 7.99805V6.76758C1.23047 6.42834 1.50646 6.15234 1.8457 6.15234H8.03906V8.61328ZM11.7305 19.7695H9.26953V6.15234C9.39844 6.15234 11.0234 6.15234 11.7305 6.15234V19.7695ZM18.5391 19.1543C18.5391 19.4935 18.2631 19.7695 17.9238 19.7695H12.9609V9.84375H18.5391V19.1543ZM19.7695 7.99805C19.7695 8.33729 19.4935 8.61328 19.1543 8.61328H12.9609V6.15234H19.1543C19.4935 6.15234 19.7695 6.42834 19.7695 6.76758V7.99805Z" fill="black"/></symbol><symbol id="qvl-icon-chevron-right" viewBox="0 0 6 10"><path fill-rule="evenodd" clip-rule="evenodd" d="M0.8002 9.6002C0.5954 9.6002 0.3906 9.5218 0.2346 9.3658C-0.0782 9.053 -0.0782 8.5474 0.2346 8.2346L3.669 4.8002L0.2346 1.3658C-0.0782 1.053 -0.0782 0.5474 0.2346 0.2346C0.5474 -0.0782 1.053 -0.0782 1.3658 0.2346L5.3658 4.2346C5.6786 4.5474 5.6786 5.053 5.3658 5.3658L1.3658 9.3658C1.2098 9.5218 1.005 9.6002 0.8002 9.6002Z"/></symbol><symbol id="qvl-icon-chevron-left" viewBox="0 0 6 10"><path fill-rule="evenodd" clip-rule="evenodd" d="M4.80014 -0.000103022C5.00494 -0.00010304 5.20974 0.0782971 5.36574 0.234297C5.67854 0.547097 5.67854 1.0527 5.36574 1.3655L1.93134 4.7999L5.36574 8.2343C5.67854 8.5471 5.67854 9.0527 5.36574 9.3655C5.05294 9.6783 4.54734 9.6783 4.23454 9.3655L0.234542 5.3655C-0.0782584 5.0527 -0.0782584 4.5471 0.234542 4.2343L4.23454 0.234297C4.39054 0.0782972 4.59534 -0.000103004 4.80014 -0.000103022"/></symbol><symbol id="qvl-icon-reset" viewBox="0 0 24 24"><path d="M12 4V1L8 5l4 4V6c3.31 0 6 2.69 6 6 0 1.01-.25 1.97-.7 2.8l1.46 1.46A7.93 7.93 0 0 0 20 12c0-4.42-3.58-8-8-8zm0 14c-3.31 0-6-2.69-6-6 0-1.01.25-1.97.7-2.8L5.24 7.74A7.93 7.93 0 0 0 4 12c0 4.42 3.58 8 8 8v3l4-4-4-4v3z"/></symbol><symbol id="qvl-icon-expand" viewBox="0 0 24 24"><path d="M21 3h-6a1 1 0 0 0 0 2h3.59l-4.3 4.29a1 1 0 0 0 1.42 1.42L20 6.41V10a1 1 0 0 0 2 0V4a1 1 0 0 0-1-1zM9.29 14.29 5 18.59V15a1 1 0 0 0-2 0v6a1 1 0 0 0 1 1h6a1 1 0 0 0 0-2H6.41l4.3-4.29a1 1 0 0 0-1.42-1.42z"/></symbol><symbol id="qvl-icon-close" viewBox="0 0 329 329"><path d="m194.800781 164.769531 128.210938-128.214843c8.34375-8.339844 8.34375-21.824219 0-30.164063-8.339844-8.339844-21.824219-8.339844-30.164063 0l-128.214844 128.214844-128.210937-128.214844c-8.34375-8.339844-21.824219-8.339844-30.164063 0-8.34375 8.339844-8.34375 21.824219 0 30.164063l128.210938 128.214843-128.210938 128.214844c-8.34375 8.339844-8.34375 21.824219 0 30.164063 4.15625 4.160156 9.621094 6.25 15.082032 6.25 5.460937 0 10.921875-2.089844 15.082031-6.25l128.210937-128.214844 128.214844 128.214844c4.160156 4.160156 9.621094 6.25 15.082032 6.25 5.460937 0 10.921874-2.089844 15.082031-6.25 8.34375-8.339844 8.34375-21.824219 0-30.164063zm0 0"/></symbol></svg>