<svg width="18" height="18" viewBox="0 0 18 18" fill="none" xmlns="http://www.w3.org/2000/svg">
<path fill-rule="evenodd" clip-rule="evenodd" d="M0.943837 7.38877C-0.314613 8.64722 -0.314612 10.6876 0.943839 11.946L6.05398 17.0562C7.31243 18.3146 9.35278 18.3146 10.6112 17.0562L17.0562 10.6112C17.6605 10.0069 18 9.18726 18 8.33261V3.22246C18 1.44275 16.5573 0 14.7775 0H9.66739C8.81274 0 7.9931 0.339509 7.38877 0.943838L0.943837 7.38877ZM13.1663 6.44493C14.0562 6.44493 14.7775 5.72356 14.7775 4.8337C14.7775 3.94384 14.0562 3.22246 13.1663 3.22246C12.2764 3.22246 11.5551 3.94384 11.5551 4.8337C11.5551 5.72356 12.2764 6.44493 13.1663 6.44493Z" fill="#F8353E"/>
</svg>